<svg width="872" height="400" viewBox="0 0 872 400" fill="none" xmlns="http://www.w3.org/2000/svg">
<rect x="40" y="40" width="320" height="320" rx="60" fill="url(#paint0_linear_102_24)"/>
<circle cx="199.5" cy="199.5" r="115.5" fill="url(#paint1_radial_102_24)"/>
<rect x="72" y="72" width="256" height="256" rx="40" stroke="white" stroke-width="16"/>
<path d="M172.141 142L198.625 188.719L225.344 142H250.891L213.469 202L251.203 262H225.656L198.625 217.156L171.672 262H146.047L183.391 202L146.516 142H172.141Z" fill="white"/>
<rect x="40" y="40" width="320" height="320" rx="60" fill="url(#paint2_linear_102_24)"/>
<path d="M484.248 236.248C484.248 234.139 483.721 232.234 482.666 230.535C481.611 228.777 479.59 227.195 476.602 225.789C473.672 224.383 469.336 223.094 463.594 221.922C458.555 220.809 453.926 219.49 449.707 217.967C445.547 216.385 441.973 214.48 438.984 212.254C435.996 210.027 433.682 207.391 432.041 204.344C430.4 201.297 429.58 197.781 429.58 193.797C429.58 189.93 430.43 186.268 432.129 182.811C433.828 179.354 436.26 176.307 439.424 173.67C442.588 171.033 446.426 168.953 450.938 167.43C455.508 165.906 460.605 165.145 466.23 165.145C474.199 165.145 481.025 166.492 486.709 169.188C492.451 171.824 496.846 175.428 499.893 179.998C502.939 184.51 504.463 189.607 504.463 195.291H483.281C483.281 192.771 482.637 190.428 481.348 188.26C480.117 186.033 478.242 184.246 475.723 182.898C473.203 181.492 470.039 180.789 466.23 180.789C462.598 180.789 459.58 181.375 457.178 182.547C454.834 183.66 453.076 185.125 451.904 186.941C450.791 188.758 450.234 190.75 450.234 192.918C450.234 194.5 450.527 195.936 451.113 197.225C451.758 198.455 452.812 199.598 454.277 200.652C455.742 201.648 457.734 202.586 460.254 203.465C462.832 204.344 466.055 205.193 469.922 206.014C477.188 207.537 483.428 209.5 488.643 211.902C493.916 214.246 497.959 217.293 500.771 221.043C503.584 224.734 504.99 229.422 504.99 235.105C504.99 239.324 504.082 243.191 502.266 246.707C500.508 250.164 497.93 253.182 494.531 255.76C491.133 258.279 487.061 260.242 482.314 261.648C477.627 263.055 472.354 263.758 466.494 263.758C457.881 263.758 450.586 262.234 444.609 259.188C438.633 256.082 434.092 252.127 430.986 247.322C427.939 242.459 426.416 237.42 426.416 232.205H446.895C447.129 236.131 448.213 239.266 450.146 241.609C452.139 243.895 454.6 245.564 457.529 246.619C460.518 247.615 463.594 248.113 466.758 248.113C470.566 248.113 473.76 247.615 476.338 246.619C478.916 245.564 480.879 244.158 482.227 242.4C483.574 240.584 484.248 238.533 484.248 236.248ZM576.885 236.248C576.885 234.139 576.357 232.234 575.303 230.535C574.248 228.777 572.227 227.195 569.238 225.789C566.309 224.383 561.973 223.094 556.23 221.922C551.191 220.809 546.562 219.49 542.344 217.967C538.184 216.385 534.609 214.48 531.621 212.254C528.633 210.027 526.318 207.391 524.678 204.344C523.037 201.297 522.217 197.781 522.217 193.797C522.217 189.93 523.066 186.268 524.766 182.811C526.465 179.354 528.896 176.307 532.061 173.67C535.225 171.033 539.062 168.953 543.574 167.43C548.145 165.906 553.242 165.145 558.867 165.145C566.836 165.145 573.662 166.492 579.346 169.188C585.088 171.824 589.482 175.428 592.529 179.998C595.576 184.51 597.1 189.607 597.1 195.291H575.918C575.918 192.771 575.273 190.428 573.984 188.26C572.754 186.033 570.879 184.246 568.359 182.898C565.84 181.492 562.676 180.789 558.867 180.789C555.234 180.789 552.217 181.375 549.814 182.547C547.471 183.66 545.713 185.125 544.541 186.941C543.428 188.758 542.871 190.75 542.871 192.918C542.871 194.5 543.164 195.936 543.75 197.225C544.395 198.455 545.449 199.598 546.914 200.652C548.379 201.648 550.371 202.586 552.891 203.465C555.469 204.344 558.691 205.193 562.559 206.014C569.824 207.537 576.064 209.5 581.279 211.902C586.553 214.246 590.596 217.293 593.408 221.043C596.221 224.734 597.627 229.422 597.627 235.105C597.627 239.324 596.719 243.191 594.902 246.707C593.145 250.164 590.566 253.182 587.168 255.76C583.77 258.279 579.697 260.242 574.951 261.648C570.264 263.055 564.99 263.758 559.131 263.758C550.518 263.758 543.223 262.234 537.246 259.188C531.27 256.082 526.729 252.127 523.623 247.322C520.576 242.459 519.053 237.42 519.053 232.205H539.531C539.766 236.131 540.85 239.266 542.783 241.609C544.775 243.895 547.236 245.564 550.166 246.619C553.154 247.615 556.23 248.113 559.395 248.113C563.203 248.113 566.396 247.615 568.975 246.619C571.553 245.564 573.516 244.158 574.863 242.4C576.211 240.584 576.885 238.533 576.885 236.248ZM637.09 127V262H615.996V127H637.09ZM633.398 210.936L626.543 210.848C626.602 204.285 627.51 198.221 629.268 192.654C631.084 187.088 633.604 182.254 636.826 178.152C640.107 173.992 644.033 170.799 648.604 168.572C653.174 166.287 658.242 165.145 663.809 165.145C668.496 165.145 672.715 165.789 676.465 167.078C680.273 168.367 683.555 170.447 686.309 173.318C689.062 176.131 691.143 179.822 692.549 184.393C694.014 188.904 694.746 194.412 694.746 200.916V262H673.477V200.74C673.477 196.17 672.803 192.537 671.455 189.842C670.166 187.146 668.262 185.213 665.742 184.041C663.223 182.811 660.146 182.195 656.514 182.195C652.705 182.195 649.336 182.957 646.406 184.48C643.535 186.004 641.133 188.084 639.199 190.721C637.266 193.357 635.801 196.404 634.805 199.861C633.867 203.318 633.398 207.01 633.398 210.936ZM732.363 166.902L750.469 198.455L768.926 166.902H792.217L763.389 213.572L793.359 262H770.068L750.732 229.129L731.396 262H708.018L737.9 213.572L709.16 166.902H732.363Z" fill="white"/>
<defs>
<linearGradient id="paint0_linear_102_24" x1="169.5" y1="64" x2="322.5" y2="360" gradientUnits="userSpaceOnUse">
<stop stop-color="#976EEF"/>
<stop offset="1" stop-color="#29017E"/>
</linearGradient>
<radialGradient id="paint1_radial_102_24" cx="0" cy="0" r="1" gradientUnits="userSpaceOnUse" gradientTransform="translate(199.5 199.5) rotate(90) scale(115.5)">
<stop stop-color="#6259C2" stop-opacity="0.3"/>
<stop offset="1" stop-color="#6259C2" stop-opacity="0"/>
</radialGradient>
<linearGradient id="paint2_linear_102_24" x1="200" y1="40" x2="200" y2="360" gradientUnits="userSpaceOnUse">
<stop stop-opacity="0"/>
<stop offset="1" stop-color="#1D005A" stop-opacity="0.1"/>
</linearGradient>
</defs>
</svg>
